<svg width="65" height="56" viewBox="0 0 65 56" fill="none" xmlns="http://www.w3.org/2000/svg">
<rect x="0.15" y="12.15" width="52.7" height="31.7" rx="15.85" fill="#303030"/>
<rect x="0.15" y="12.15" width="52.7" height="31.7" rx="15.85" stroke="#AAAAAA" stroke-width="0.3"/>
<path d="M14.5635 33H13.251V23.0469H14.5635V33ZM18.4873 23.8125V25.6035H19.8682V26.5811H18.4873V31.168C18.4873 31.4642 18.5488 31.6875 18.6719 31.8379C18.7949 31.9837 19.0046 32.0566 19.3008 32.0566C19.4466 32.0566 19.6471 32.0293 19.9023 31.9746V33C19.5697 33.0911 19.2461 33.1367 18.9316 33.1367C18.3665 33.1367 17.9404 32.9658 17.6533 32.624C17.3662 32.2822 17.2227 31.7969 17.2227 31.168V26.5811H15.876V25.6035H17.2227V23.8125H18.4873ZM24.4209 33.1367C23.4183 33.1367 22.6025 32.8086 21.9736 32.1523C21.3447 31.4915 21.0303 30.6097 21.0303 29.5068V29.2744C21.0303 28.5407 21.1693 27.8867 21.4473 27.3125C21.7298 26.7337 22.1217 26.2826 22.623 25.959C23.1289 25.6309 23.6758 25.4668 24.2637 25.4668C25.2253 25.4668 25.9727 25.7835 26.5059 26.417C27.0391 27.0505 27.3057 27.9574 27.3057 29.1377V29.6641H22.2949C22.3132 30.3932 22.5251 30.9834 22.9307 31.4346C23.3408 31.8812 23.8604 32.1045 24.4893 32.1045C24.9359 32.1045 25.3141 32.0133 25.624 31.8311C25.9339 31.6488 26.2051 31.4072 26.4375 31.1064L27.21 31.708C26.5902 32.6605 25.6605 33.1367 24.4209 33.1367ZM24.2637 26.5059C23.7533 26.5059 23.3249 26.6927 22.9785 27.0664C22.6322 27.4355 22.418 27.9551 22.3359 28.625H26.041V28.5293C26.0046 27.8867 25.8314 27.39 25.5215 27.0391C25.2116 26.6836 24.7923 26.5059 24.2637 26.5059ZM29.9648 25.6035L29.999 26.4238C30.5413 25.7858 31.2728 25.4668 32.1934 25.4668C33.2279 25.4668 33.932 25.8633 34.3057 26.6562C34.5518 26.3008 34.8708 26.0137 35.2627 25.7949C35.6592 25.5762 36.1263 25.4668 36.6641 25.4668C38.2865 25.4668 39.1113 26.3258 39.1387 28.0439V33H37.874V28.1191C37.874 27.5905 37.7533 27.1963 37.5117 26.9365C37.2702 26.6722 36.8646 26.54 36.2949 26.54C35.8255 26.54 35.4359 26.6813 35.126 26.9639C34.8161 27.2419 34.6361 27.6178 34.5859 28.0918V33H33.3145V28.1533C33.3145 27.0778 32.7881 26.54 31.7354 26.54C30.9059 26.54 30.3385 26.8932 30.0332 27.5996V33H28.7686V25.6035H29.9648Z" fill="white"/>
</svg>
