<svg width="24" height="24" viewBox="0 0 24 24" fill="none" xmlns="http://www.w3.org/2000/svg">
<path d="M10 9.35L15 12L10 14.65V9.35ZM12 6C9.47424 5.95085 6.94811 6.07782 4.44 6.38C4.18722 6.4509 3.95693 6.58564 3.77129 6.77129C3.58565 6.95693 3.4509 7.18722 3.38 7.44C3.11211 8.94492 2.9849 10.4715 3 12C2.9849 13.5285 3.11211 15.0551 3.38 16.56C3.4509 16.8128 3.58565 17.0431 3.77129 17.2287C3.95693 17.4144 4.18722 17.5491 4.44 17.62C6.94811 17.9222 9.47424 18.0492 12 18C14.5258 18.0492 17.0519 17.9222 19.56 17.62C19.8128 17.5491 20.0431 17.4144 20.2287 17.2287C20.4144 17.0431 20.5491 16.8128 20.62 16.56C20.8879 15.0551 21.0151 13.5285 21 12C21.0151 10.4715 20.8879 8.94492 20.62 7.44C20.5491 7.18722 20.4144 6.95693 20.2287 6.77129C20.0431 6.58564 19.8128 6.4509 19.56 6.38C17.0519 6.07782 14.5258 5.95085 12 6ZM12 5C12 5 18.25 5 19.81 5.42C20.2341 5.53436 20.6208 5.75801 20.9314 6.06861C21.242 6.37921 21.4656 6.76589 21.58 7.19C21.8696 8.77673 22.0103 10.3871 22 12C22.0103 13.6129 21.8696 15.2233 21.58 16.81C21.4656 17.2341 21.242 17.6208 20.9314 17.9314C20.6208 18.242 20.2341 18.4656 19.81 18.58C18.25 19 12 19 12 19C12 19 5.75 19 4.19 18.58C3.76589 18.4656 3.37922 18.242 3.06861 17.9314C2.75801 17.6208 2.53436 17.2341 2.42 16.81C2.13036 15.2233 1.98975 13.6129 2 12C1.98975 10.3871 2.13036 8.77673 2.42 7.19C2.53436 6.76589 2.75801 6.37921 3.06861 6.06861C3.37922 5.75801 3.76589 5.53436 4.19 5.42C5.75 5 12 5 12 5Z" fill="white"/>
</svg>
